<svg xmlns="http://www.w3.org/2000/svg" viewBox="0 0 120.1 22.514">
  <defs>
    <style>
      .cls-1 {
        fill: #fff;
      }

      .cls-2 {
        fill: #f5a623;
      }
    </style>
  </defs>
  <g id="logo_cospace" data-name="logo cospace" transform="translate(-21 -20)">
    <g id="typo" transform="translate(21 20.014)">
      <path id="Union_1" data-name="Union 1" class="cls-1" d="M31.9,2.5V-20h7.9c3,0,4.3.3,5.7,1.4,1.9,1.5,2.9,3.9,2.9,7.1a8.105,8.105,0,0,1-2.1,5.8c-1.5,1.5-3.2,2.1-5.9,2.1h-4V2.5Zm4.5-9.6h2.8c3,0,4.6-1.6,4.6-4.8,0-3-1.5-4.6-4.3-4.6H36.4ZM93.1-3.6c-2.6,0-4-.4-5.5-1.5-2-1.5-3-3.9-3-6.9a8.263,8.263,0,0,1,3.2-6.8c1.2-.9,2.7-1.2,4.9-1.2H99v3.5H93c-2.5,0-3.3.7-3.4,2.9h9.5v3.5H89.6c.2,2.2,1.4,3.1,4,3h5.5v3.5Zm-15.6,0c-3.3,0-5-.7-6.5-2.3a8.6,8.6,0,0,1-2.1-6,8.429,8.429,0,0,1,2.5-6.5c1.4-1.1,3.1-1.6,6.2-1.6h6.1v3.5H78.3c-3.4,0-4.8,1.4-4.8,4.7a4.47,4.47,0,0,0,1.6,3.9,5.638,5.638,0,0,0,3.6.8h4.9v3.5Zm-89.9,0c-3.3,0-5-.7-6.5-2.3a8.6,8.6,0,0,1-2.1-6,8.429,8.429,0,0,1,2.5-6.5c1.4-1.1,3.1-1.6,6.1-1.6h6.3v3.5h-5.4c-3.4,0-4.8,1.4-4.8,4.7a4.469,4.469,0,0,0,1.6,3.9,5.638,5.638,0,0,0,3.6.8h4.8v3.5Zm69.6-.1c-3.4,0-4.2-.1-5.2-.8a4.547,4.547,0,0,1-2-4,4.788,4.788,0,0,1,2.8-4.7,11.731,11.731,0,0,1,3.8-.4h5.5c.1-2.2-.7-2.9-3.4-2.9H51.1V-20h7.6c3.9-.1,5.1.3,6.5,1.9,1.2,1.3,1.5,2.7,1.5,5.3v9.1ZM55.6-9.9a1.412,1.412,0,0,0-1,1.4c0,1,.6,1.4,2.4,1.4h5.2V-10H57A4.18,4.18,0,0,0,55.6-9.9ZM13.8-3.8V-7.3h8a11.708,11.708,0,0,0,2.4-.1A1.127,1.127,0,0,0,25-8.6a1.487,1.487,0,0,0-.8-1.4c-.3-.2-.8-.2-1.9-.2H19.5c-2.1,0-3-.2-4-.9a5.239,5.239,0,0,1-1.9-4.2,5.152,5.152,0,0,1,1.8-3.9c.7-.6,1.8-.8,3.7-.8h9.6v3.6h-8c-2,0-2.5.2-2.5,1.4a1.357,1.357,0,0,0,.7,1.3c.3.2.8.3,2.2.3h2.7c3.6,0,5.6,1.6,5.6,4.5a5.176,5.176,0,0,1-2.5,4.6c-.7.4-1.8.5-3.8.5Z" transform="translate(21 20)"/>
    </g>
    <circle id="Ellipse_33" data-name="Ellipse 33" class="cls-2" cx="5.5" cy="5.5" r="5.5" transform="translate(40.2 22.414)"/>
  </g>
</svg>
